<svg  viewBox="0 0 25 20"  xmlns="http://www.w3.org/2000/svg">
<path d="M23.003 9.49609C20.6886 5.5957 17.1901 3.63281 12.5001 3.63281C7.80773 3.63281 4.31164 5.5957 1.99718 9.49805C1.90435 9.65531 1.8562 9.82706 1.8562 10.001C1.8562 10.1749 1.90435 10.3466 1.99718 10.5039C4.31164 14.4043 7.81017 16.3672 12.5001 16.3672C17.1925 16.3672 20.6886 14.4043 23.003 10.502C23.191 10.1855 23.191 9.81836 23.003 9.49609ZM12.5001 14.9609C8.56213 14.9609 5.67882 13.3633 3.64513 10C5.67882 6.63672 8.56213 5.03906 12.5001 5.03906C16.4381 5.03906 19.3214 6.63672 21.3551 10C19.3239 13.3633 16.4405 14.9609 12.5001 14.9609ZM12.4025 6.5625C10.0294 6.5625 8.10558 8.10156 8.10558 10C8.10558 11.8984 10.0294 13.4375 12.4025 13.4375C14.7755 13.4375 16.6993 11.8984 16.6993 10C16.6993 8.10156 14.7755 6.5625 12.4025 6.5625ZM12.4025 12.1875C10.8912 12.1875 9.66808 11.209 9.66808 10C9.66808 8.79102 10.8912 7.8125 12.4025 7.8125C13.9137 7.8125 15.1368 8.79102 15.1368 10C15.1368 11.209 13.9137 12.1875 12.4025 12.1875Z" />
</svg>
